<svg width="20" height="20" viewBox="0 0 20 20" fill="none" xmlns="http://www.w3.org/2000/svg">
<path fill-rule="evenodd" clip-rule="evenodd" d="M17.3289 7.42924L15.464 6.02294V2.13465H12.7993V4.01232L9.59992 1.60001L1.86813 7.42924C1.70868 7.5771 1.61262 7.78092 1.6001 7.99802V16.9008C1.60088 17.2846 1.91162 17.5956 2.29543 17.5968H16.9016C17.2854 17.5956 17.5961 17.2846 17.5969 16.9008V7.99873C17.5846 7.78138 17.4885 7.57727 17.3289 7.42924Z" stroke="#0FEFFD" stroke-width="1.5" stroke-linecap="round" stroke-linejoin="round"/>
<path fill-rule="evenodd" clip-rule="evenodd" d="M17.3289 7.42924L15.464 6.02294V2.13465H12.7993V4.01232L9.59992 1.60001L1.86813 7.42924C1.70868 7.5771 1.61262 7.78092 1.6001 7.99802V16.9008C1.60088 17.2846 1.91162 17.5956 2.29543 17.5968H16.9016C17.2854 17.5956 17.5961 17.2846 17.5969 16.9008V7.99873C17.5846 7.78138 17.4885 7.57727 17.3289 7.42924Z" stroke="black" stroke-opacity="0.2" stroke-width="1.5" stroke-linecap="round" stroke-linejoin="round"/>
</svg>
