<svg width="20" height="20" viewBox="0 0 20 20" fill="none" xmlns="http://www.w3.org/2000/svg">
<path d="M1.59961 17.6V1.60001" stroke="#0FEFFD" stroke-width="1.5" stroke-linecap="round" stroke-linejoin="round"/>
<path d="M1.59961 17.6V1.60001" stroke="black" stroke-opacity="0.2" stroke-width="1.5" stroke-linecap="round" stroke-linejoin="round"/>
<path d="M17.5996 1.60001V17.6" stroke="#0FEFFD" stroke-width="1.5" stroke-linecap="round" stroke-linejoin="round"/>
<path d="M17.5996 1.60001V17.6" stroke="black" stroke-opacity="0.2" stroke-width="1.5" stroke-linecap="round" stroke-linejoin="round"/>
<path d="M5.86621 1.60001H13.3329V8.00001H5.86621V1.60001Z" stroke="#0FEFFD" stroke-width="1.5" stroke-linecap="round" stroke-linejoin="round"/>
<path d="M5.86621 1.60001H13.3329V8.00001H5.86621V1.60001Z" stroke="black" stroke-opacity="0.2" stroke-width="1.5" stroke-linecap="round" stroke-linejoin="round"/>
<path d="M5.86621 11.2H13.3329V17.6H5.86621V11.2Z" stroke="#0FEFFD" stroke-width="1.5" stroke-linecap="round" stroke-linejoin="round"/>
<path d="M5.86621 11.2H13.3329V17.6H5.86621V11.2Z" stroke="black" stroke-opacity="0.2" stroke-width="1.5" stroke-linecap="round" stroke-linejoin="round"/>
<path d="M3.99915 3.20002C3.99915 3.25276 3.98351 3.30432 3.95421 3.34817C3.92491 3.39202 3.88326 3.4262 3.83454 3.44638C3.78581 3.46657 3.73219 3.47185 3.68046 3.46156C3.62873 3.45127 3.58122 3.42587 3.54393 3.38858C3.50663 3.35128 3.48123 3.30377 3.47094 3.25204C3.46065 3.20031 3.46594 3.14669 3.48612 3.09797C3.5063 3.04924 3.54048 3.00759 3.58434 2.97829C3.62819 2.94899 3.67975 2.93335 3.73249 2.93335C3.80321 2.93335 3.87104 2.96144 3.92105 3.01145C3.97106 3.06146 3.99915 3.12929 3.99915 3.20002Z" stroke="#0FEFFD" stroke-width="1.5" stroke-linecap="round" stroke-linejoin="round"/>
<path d="M3.99915 3.20002C3.99915 3.25276 3.98351 3.30432 3.95421 3.34817C3.92491 3.39202 3.88326 3.4262 3.83454 3.44638C3.78581 3.46657 3.73219 3.47185 3.68046 3.46156C3.62873 3.45127 3.58122 3.42587 3.54393 3.38858C3.50663 3.35128 3.48123 3.30377 3.47094 3.25204C3.46065 3.20031 3.46594 3.14669 3.48612 3.09797C3.5063 3.04924 3.54048 3.00759 3.58434 2.97829C3.62819 2.94899 3.67975 2.93335 3.73249 2.93335C3.80321 2.93335 3.87104 2.96144 3.92105 3.01145C3.97106 3.06146 3.99915 3.12929 3.99915 3.20002Z" stroke="black" stroke-opacity="0.2" stroke-width="1.5" stroke-linecap="round" stroke-linejoin="round"/>
<path d="M3.99915 7.46668C3.99915 7.51942 3.98351 7.57098 3.95421 7.61483C3.92491 7.65868 3.88326 7.69286 3.83454 7.71305C3.78581 7.73323 3.73219 7.73851 3.68046 7.72822C3.62873 7.71793 3.58122 7.69254 3.54393 7.65524C3.50663 7.61795 3.48123 7.57043 3.47094 7.5187C3.46065 7.46698 3.46594 7.41336 3.48612 7.36463C3.5063 7.3159 3.54048 7.27426 3.58434 7.24495C3.62819 7.21565 3.67975 7.20001 3.73249 7.20001C3.80321 7.20001 3.87104 7.22811 3.92105 7.27812C3.97106 7.32813 3.99915 7.39595 3.99915 7.46668Z" stroke="#0FEFFD" stroke-width="1.5" stroke-linecap="round" stroke-linejoin="round"/>
<path d="M3.99915 7.46668C3.99915 7.51942 3.98351 7.57098 3.95421 7.61483C3.92491 7.65868 3.88326 7.69286 3.83454 7.71305C3.78581 7.73323 3.73219 7.73851 3.68046 7.72822C3.62873 7.71793 3.58122 7.69254 3.54393 7.65524C3.50663 7.61795 3.48123 7.57043 3.47094 7.5187C3.46065 7.46698 3.46594 7.41336 3.48612 7.36463C3.5063 7.3159 3.54048 7.27426 3.58434 7.24495C3.62819 7.21565 3.67975 7.20001 3.73249 7.20001C3.80321 7.20001 3.87104 7.22811 3.92105 7.27812C3.97106 7.32813 3.99915 7.39595 3.99915 7.46668Z" stroke="black" stroke-opacity="0.2" stroke-width="1.5" stroke-linecap="round" stroke-linejoin="round"/>
<path d="M3.99915 11.7333C3.99915 11.7861 3.98351 11.8376 3.95421 11.8815C3.92491 11.9253 3.88326 11.9595 3.83454 11.9797C3.78581 11.9999 3.73219 12.0052 3.68046 11.9949C3.62873 11.9846 3.58122 11.9592 3.54393 11.9219C3.50663 11.8846 3.48123 11.8371 3.47094 11.7854C3.46065 11.7336 3.46594 11.68 3.48612 11.6313C3.5063 11.5826 3.54048 11.5409 3.58434 11.5116C3.62819 11.4823 3.67975 11.4667 3.73249 11.4667C3.80321 11.4667 3.87104 11.4948 3.92105 11.5448C3.97106 11.5948 3.99915 11.6626 3.99915 11.7333Z" stroke="#0FEFFD" stroke-width="1.5" stroke-linecap="round" stroke-linejoin="round"/>
<path d="M3.99915 11.7333C3.99915 11.7861 3.98351 11.8376 3.95421 11.8815C3.92491 11.9253 3.88326 11.9595 3.83454 11.9797C3.78581 11.9999 3.73219 12.0052 3.68046 11.9949C3.62873 11.9846 3.58122 11.9592 3.54393 11.9219C3.50663 11.8846 3.48123 11.8371 3.47094 11.7854C3.46065 11.7336 3.46594 11.68 3.48612 11.6313C3.5063 11.5826 3.54048 11.5409 3.58434 11.5116C3.62819 11.4823 3.67975 11.4667 3.73249 11.4667C3.80321 11.4667 3.87104 11.4948 3.92105 11.5448C3.97106 11.5948 3.99915 11.6626 3.99915 11.7333Z" stroke="black" stroke-opacity="0.2" stroke-width="1.5" stroke-linecap="round" stroke-linejoin="round"/>
<path d="M3.99915 16C3.99915 16.0527 3.98351 16.1043 3.95421 16.1482C3.92491 16.192 3.88326 16.2262 3.83454 16.2464C3.78581 16.2666 3.73219 16.2718 3.68046 16.2615C3.62873 16.2513 3.58122 16.2259 3.54393 16.1886C3.50663 16.1513 3.48123 16.1038 3.47094 16.052C3.46065 16.0003 3.46594 15.9467 3.48612 15.898C3.5063 15.8492 3.54048 15.8076 3.58434 15.7783C3.62819 15.749 3.67975 15.7333 3.73249 15.7333C3.80321 15.7333 3.87104 15.7614 3.92105 15.8114C3.97106 15.8615 3.99915 15.9293 3.99915 16Z" stroke="#0FEFFD" stroke-width="1.5" stroke-linecap="round" stroke-linejoin="round"/>
<path d="M3.99915 16C3.99915 16.0527 3.98351 16.1043 3.95421 16.1482C3.92491 16.192 3.88326 16.2262 3.83454 16.2464C3.78581 16.2666 3.73219 16.2718 3.68046 16.2615C3.62873 16.2513 3.58122 16.2259 3.54393 16.1886C3.50663 16.1513 3.48123 16.1038 3.47094 16.052C3.46065 16.0003 3.46594 15.9467 3.48612 15.898C3.5063 15.8492 3.54048 15.8076 3.58434 15.7783C3.62819 15.749 3.67975 15.7333 3.73249 15.7333C3.80321 15.7333 3.87104 15.7614 3.92105 15.8114C3.97106 15.8615 3.99915 15.9293 3.99915 16Z" stroke="black" stroke-opacity="0.2" stroke-width="1.5" stroke-linecap="round" stroke-linejoin="round"/>
<path d="M15.7326 3.20002C15.7326 3.25276 15.7169 3.30432 15.6876 3.34817C15.6583 3.39202 15.6167 3.4262 15.5679 3.44638C15.5192 3.46657 15.4656 3.47185 15.4139 3.46156C15.3621 3.45127 15.3146 3.42587 15.2773 3.38858C15.24 3.35128 15.2146 3.30377 15.2043 3.25204C15.1941 3.20031 15.1993 3.14669 15.2195 3.09797C15.2397 3.04924 15.2739 3.00759 15.3177 2.97829C15.3616 2.94899 15.4131 2.93335 15.4659 2.93335C15.5366 2.93335 15.6044 2.96144 15.6544 3.01145C15.7045 3.06146 15.7326 3.12929 15.7326 3.20002Z" stroke="#0FEFFD" stroke-width="1.5" stroke-linecap="round" stroke-linejoin="round"/>
<path d="M15.7326 3.20002C15.7326 3.25276 15.7169 3.30432 15.6876 3.34817C15.6583 3.39202 15.6167 3.4262 15.5679 3.44638C15.5192 3.46657 15.4656 3.47185 15.4139 3.46156C15.3621 3.45127 15.3146 3.42587 15.2773 3.38858C15.24 3.35128 15.2146 3.30377 15.2043 3.25204C15.1941 3.20031 15.1993 3.14669 15.2195 3.09797C15.2397 3.04924 15.2739 3.00759 15.3177 2.97829C15.3616 2.94899 15.4131 2.93335 15.4659 2.93335C15.5366 2.93335 15.6044 2.96144 15.6544 3.01145C15.7045 3.06146 15.7326 3.12929 15.7326 3.20002Z" stroke="black" stroke-opacity="0.2" stroke-width="1.5" stroke-linecap="round" stroke-linejoin="round"/>
<path d="M15.7326 7.46668C15.7326 7.51942 15.7169 7.57098 15.6876 7.61483C15.6583 7.65868 15.6167 7.69286 15.5679 7.71305C15.5192 7.73323 15.4656 7.73851 15.4139 7.72822C15.3621 7.71793 15.3146 7.69254 15.2773 7.65524C15.24 7.61795 15.2146 7.57043 15.2043 7.5187C15.1941 7.46698 15.1993 7.41336 15.2195 7.36463C15.2397 7.3159 15.2739 7.27426 15.3177 7.24495C15.3616 7.21565 15.4131 7.20001 15.4659 7.20001C15.5366 7.20001 15.6044 7.22811 15.6544 7.27812C15.7045 7.32813 15.7326 7.39595 15.7326 7.46668Z" stroke="#0FEFFD" stroke-width="1.5" stroke-linecap="round" stroke-linejoin="round"/>
<path d="M15.7326 7.46668C15.7326 7.51942 15.7169 7.57098 15.6876 7.61483C15.6583 7.65868 15.6167 7.69286 15.5679 7.71305C15.5192 7.73323 15.4656 7.73851 15.4139 7.72822C15.3621 7.71793 15.3146 7.69254 15.2773 7.65524C15.24 7.61795 15.2146 7.57043 15.2043 7.5187C15.1941 7.46698 15.1993 7.41336 15.2195 7.36463C15.2397 7.3159 15.2739 7.27426 15.3177 7.24495C15.3616 7.21565 15.4131 7.20001 15.4659 7.20001C15.5366 7.20001 15.6044 7.22811 15.6544 7.27812C15.7045 7.32813 15.7326 7.39595 15.7326 7.46668Z" stroke="black" stroke-opacity="0.2" stroke-width="1.5" stroke-linecap="round" stroke-linejoin="round"/>
<path d="M15.7326 11.7333C15.7326 11.7861 15.7169 11.8376 15.6876 11.8815C15.6583 11.9253 15.6167 11.9595 15.5679 11.9797C15.5192 11.9999 15.4656 12.0052 15.4139 11.9949C15.3621 11.9846 15.3146 11.9592 15.2773 11.9219C15.24 11.8846 15.2146 11.8371 15.2043 11.7854C15.1941 11.7336 15.1993 11.68 15.2195 11.6313C15.2397 11.5826 15.2739 11.5409 15.3177 11.5116C15.3616 11.4823 15.4131 11.4667 15.4659 11.4667C15.5366 11.4667 15.6044 11.4948 15.6544 11.5448C15.7045 11.5948 15.7326 11.6626 15.7326 11.7333Z" stroke="#0FEFFD" stroke-width="1.5" stroke-linecap="round" stroke-linejoin="round"/>
<path d="M15.7326 11.7333C15.7326 11.7861 15.7169 11.8376 15.6876 11.8815C15.6583 11.9253 15.6167 11.9595 15.5679 11.9797C15.5192 11.9999 15.4656 12.0052 15.4139 11.9949C15.3621 11.9846 15.3146 11.9592 15.2773 11.9219C15.24 11.8846 15.2146 11.8371 15.2043 11.7854C15.1941 11.7336 15.1993 11.68 15.2195 11.6313C15.2397 11.5826 15.2739 11.5409 15.3177 11.5116C15.3616 11.4823 15.4131 11.4667 15.4659 11.4667C15.5366 11.4667 15.6044 11.4948 15.6544 11.5448C15.7045 11.5948 15.7326 11.6626 15.7326 11.7333Z" stroke="black" stroke-opacity="0.2" stroke-width="1.5" stroke-linecap="round" stroke-linejoin="round"/>
<path d="M15.7326 16C15.7326 16.0527 15.7169 16.1043 15.6876 16.1482C15.6583 16.192 15.6167 16.2262 15.5679 16.2464C15.5192 16.2666 15.4656 16.2718 15.4139 16.2615C15.3621 16.2513 15.3146 16.2259 15.2773 16.1886C15.24 16.1513 15.2146 16.1038 15.2043 16.052C15.1941 16.0003 15.1993 15.9467 15.2195 15.898C15.2397 15.8492 15.2739 15.8076 15.3177 15.7783C15.3616 15.749 15.4131 15.7333 15.4659 15.7333C15.5366 15.7333 15.6044 15.7614 15.6544 15.8114C15.7045 15.8615 15.7326 15.9293 15.7326 16Z" stroke="#0FEFFD" stroke-width="1.5" stroke-linecap="round" stroke-linejoin="round"/>
<path d="M15.7326 16C15.7326 16.0527 15.7169 16.1043 15.6876 16.1482C15.6583 16.192 15.6167 16.2262 15.5679 16.2464C15.5192 16.2666 15.4656 16.2718 15.4139 16.2615C15.3621 16.2513 15.3146 16.2259 15.2773 16.1886C15.24 16.1513 15.2146 16.1038 15.2043 16.052C15.1941 16.0003 15.1993 15.9467 15.2195 15.898C15.2397 15.8492 15.2739 15.8076 15.3177 15.7783C15.3616 15.749 15.4131 15.7333 15.4659 15.7333C15.5366 15.7333 15.6044 15.7614 15.6544 15.8114C15.7045 15.8615 15.7326 15.9293 15.7326 16Z" stroke="black" stroke-opacity="0.2" stroke-width="1.5" stroke-linecap="round" stroke-linejoin="round"/>
</svg>
